<mxfile host="app.diagrams.net" modified="2021-08-31T11:54:14.559Z" agent="5.0 (X11)" etag="dig5nmkvpDnPjhGeoNLU" version="15.0.3" type="github">
  <diagram id="AW3lrfVe_cu4griUZ3sS" name="Page-1">
    <mxGraphModel dx="862" dy="481" grid="1" gridSize="10" guides="1" tooltips="1" connect="1" arrows="1" fold="1" page="1" pageScale="1" pageWidth="827" pageHeight="1169" math="0" shadow="0">
      <root>
        <mxCell id="0" />
        <mxCell id="1" parent="0" />
        <mxCell id="OKmY9DF-mVXCxbxp1XHi-3" style="edgeStyle=orthogonalEdgeStyle;rounded=0;orthogonalLoop=1;jettySize=auto;html=1;entryX=0;entryY=0.5;entryDx=0;entryDy=0;" edge="1" parent="1" source="OKmY9DF-mVXCxbxp1XHi-1" target="OKmY9DF-mVXCxbxp1XHi-2">
          <mxGeometry relative="1" as="geometry">
            <mxPoint x="230" y="120" as="targetPoint" />
            <Array as="points" />
          </mxGeometry>
        </mxCell>
        <mxCell id="OKmY9DF-mVXCxbxp1XHi-1" value="Djonga" style="rounded=0;whiteSpace=wrap;html=1;" vertex="1" parent="1">
          <mxGeometry x="40" y="80" width="120" height="80" as="geometry" />
        </mxCell>
        <mxCell id="OKmY9DF-mVXCxbxp1XHi-2" value="&lt;div&gt;Heresia&lt;/div&gt;&lt;div&gt;LadrÃ£o&lt;/div&gt;&lt;div&gt;&lt;br&gt;&lt;/div&gt;" style="rounded=0;whiteSpace=wrap;html=1;" vertex="1" parent="1">
          <mxGeometry x="240" y="80" width="120" height="80" as="geometry" />
        </mxCell>
        <mxCell id="OKmY9DF-mVXCxbxp1XHi-4" value="Artista id" style="rounded=0;whiteSpace=wrap;html=1;" vertex="1" parent="1">
          <mxGeometry x="40" y="80" width="120" height="20" as="geometry" />
        </mxCell>
        <mxCell id="OKmY9DF-mVXCxbxp1XHi-5" value="Album" style="rounded=0;whiteSpace=wrap;html=1;" vertex="1" parent="1">
          <mxGeometry x="240" y="80" width="120" height="20" as="geometry" />
        </mxCell>
        <mxCell id="OKmY9DF-mVXCxbxp1XHi-6" value="Vertical Tree Layout" style="swimlane;startSize=20;horizontal=1;childLayout=treeLayout;horizontalTree=0;resizable=0;containerType=tree;" vertex="1" parent="1">
          <mxGeometry x="134" y="240" width="280" height="190" as="geometry" />
        </mxCell>
        <mxCell id="OKmY9DF-mVXCxbxp1XHi-7" value="Root" style="whiteSpace=wrap;html=1;" vertex="1" parent="OKmY9DF-mVXCxbxp1XHi-6">
          <mxGeometry x="90" y="40" width="100" height="40" as="geometry" />
        </mxCell>
        <mxCell id="OKmY9DF-mVXCxbxp1XHi-8" value="Child 1" style="whiteSpace=wrap;html=1;" vertex="1" parent="OKmY9DF-mVXCxbxp1XHi-6">
          <mxGeometry x="20" y="130" width="100" height="40" as="geometry" />
        </mxCell>
        <mxCell id="OKmY9DF-mVXCxbxp1XHi-9" value="" style="edgeStyle=elbowEdgeStyle;elbow=vertical;html=1;rounded=0;" edge="1" parent="OKmY9DF-mVXCxbxp1XHi-6" source="OKmY9DF-mVXCxbxp1XHi-7" target="OKmY9DF-mVXCxbxp1XHi-8">
          <mxGeometry relative="1" as="geometry" />
        </mxCell>
        <mxCell id="OKmY9DF-mVXCxbxp1XHi-10" value="Child 2" style="whiteSpace=wrap;html=1;" vertex="1" parent="OKmY9DF-mVXCxbxp1XHi-6">
          <mxGeometry x="160" y="130" width="100" height="40" as="geometry" />
        </mxCell>
        <mxCell id="OKmY9DF-mVXCxbxp1XHi-11" value="" style="edgeStyle=elbowEdgeStyle;elbow=vertical;html=1;rounded=0;" edge="1" parent="OKmY9DF-mVXCxbxp1XHi-6" source="OKmY9DF-mVXCxbxp1XHi-7" target="OKmY9DF-mVXCxbxp1XHi-10">
          <mxGeometry relative="1" as="geometry" />
        </mxCell>
      </root>
    </mxGraphModel>
  </diagram>
</mxfile>
